<?xml version="1.0" encoding="utf-8"?>
<svg viewBox="0 0 1200 512" xmlns="http://www.w3.org/2000/svg">
  <defs>
    <style>.cls-1{fill:#eff9fb;}</style>
  </defs>
  <path class="cls-1" d="M 145.222 254.555 C 145.128 246.503 153.785 241.369 160.805 245.313 C 167.825 249.258 167.942 259.322 161.017 263.429 C 159.519 264.318 157.822 264.818 156.082 264.885 C 150.209 265.087 145.314 260.431 145.222 254.555 Z"/>
  <path class="cls-1" d="M 219.372 193.695 C 219.416 186.328 227.419 181.772 233.776 185.494 C 240.134 189.215 240.079 198.424 233.677 202.069 C 232.346 202.827 230.852 203.254 229.322 203.315 C 223.899 203.455 219.415 199.12 219.372 193.695 Z"/>
  <path class="cls-1" d="M 209.442 329.015 C 209.494 321.648 217.501 317.1 223.855 320.828 C 230.209 324.556 230.144 333.765 223.738 337.403 C 222.406 338.16 220.912 338.586 219.382 338.645 C 213.959 338.779 209.479 334.44 209.442 329.015 Z"/>
  <path class="cls-1" d="M 136.462 214.945 C 136.514 207.578 144.521 203.03 150.875 206.758 C 157.229 210.486 157.164 219.695 150.758 223.333 C 149.426 224.09 147.932 224.516 146.402 224.575 C 140.979 224.709 136.499 220.37 136.462 214.945 Z"/>
  <path class="cls-1" d="M 218.782 253.075 C 218.782 238.965 236.882 232.365 245.852 243.195 C 254.822 254.025 245.002 270.895 231.182 268.195 C 223.996 266.716 218.825 260.411 218.782 253.075 Z"/>
  <path class="cls-1" d="M 168.002 345.065 C 167.432 345.073 166.87 344.943 166.362 344.685 C 164.852 343.915 163.882 342.155 162.672 339.745 C 162.495 339.355 162.298 338.974 162.082 338.605 L 109.322 254.695 L 109.552 251.455 L 173.902 175.555 C 174.092 175.335 174.332 174.975 174.622 174.555 C 176.112 172.395 177.292 170.825 178.872 170.295 C 180.452 169.765 181.932 170.545 183.152 171.145 L 183.602 171.375 L 271.472 206.635 C 272.092 206.885 272.792 207.105 273.472 207.335 C 275.425 207.848 277.29 208.654 279.002 209.725 C 280.32 210.467 281.01 211.972 280.712 213.455 L 279.882 224.935 L 277.682 255.885 C 277.202 262.612 276.729 269.345 276.262 276.085 C 275.342 289.375 274.422 302.665 273.402 315.955 L 273.402 316.365 C 273.48 317.929 272.448 319.333 270.932 319.725 L 270.582 319.845 C 268.819 320.46 267.01 320.935 265.172 321.265 C 264.352 321.435 263.542 321.605 262.762 321.795 L 171.002 344.455 L 170.552 344.595 C 169.733 344.888 168.872 345.047 168.002 345.065 Z M 169.062 339.985 Z M 168.002 339.605 Z M 115.002 253.455 L 166.722 335.655 C 166.952 336.015 167.252 336.595 167.582 337.265 C 167.912 337.935 168.332 338.755 168.722 339.395 L 168.902 339.335 L 169.732 339.085 L 261.472 316.485 C 262.322 316.275 263.202 316.095 264.082 315.905 C 265.433 315.646 266.768 315.312 268.082 314.905 C 269.082 301.825 269.992 288.745 270.902 275.665 C 271.369 268.925 271.842 262.188 272.322 255.455 L 275.322 213.775 C 274.229 213.253 273.095 212.822 271.932 212.485 C 271.082 212.215 270.262 211.945 269.542 211.655 L 181.602 176.455 C 181.382 176.365 181.082 176.215 180.752 176.055 L 180.382 175.875 C 179.932 176.425 179.382 177.225 179.062 177.685 C 178.742 178.145 178.282 178.805 178.062 179.115 L 115.002 253.455 Z M 179.672 175.555 Z"/>
  <polygon class="cls-1" points="169.482 346.985 165.092 343.795 228.392 255.145 111.162 257.385 111.062 251.925 228.632 249.675 178.112 176.535 182.552 173.415 234.222 248.225 275.962 210.875 279.562 214.965 237.162 252.905 272.662 318.285 267.912 320.905 267.892 320.875 233.432 257.425 169.482 346.985"/>
  <path class="cls-1" d="M 214.352 330.705 L 205.732 320.115 L 209.922 316.655 L 217.132 325.515 L 219.012 315.905 L 224.332 316.965 L 221.712 330.355 L 216.392 329.295 L 216.462 328.965 L 214.352 330.705 Z M 202.292 315.875 L 193.672 305.295 L 197.862 301.835 L 206.472 312.455 L 202.292 315.875 Z M 225.382 311.615 L 220.062 310.555 L 222.692 297.165 L 228.002 298.225 L 225.382 311.615 Z M 190.232 301.065 L 181.632 290.455 L 185.812 287.005 L 194.422 297.575 L 190.232 301.065 Z M 142.002 299.525 L 136.842 297.865 L 140.952 284.865 L 146.112 286.525 L 142.002 299.525 Z M 229.002 292.875 L 223.692 291.815 L 226.362 278.455 L 231.682 279.515 L 229.002 292.875 Z M 178.132 286.265 L 169.522 275.685 L 173.712 272.225 L 182.322 282.805 L 178.132 286.265 Z M 147.742 281.325 L 142.582 279.665 L 146.692 266.665 L 151.852 268.325 L 147.742 281.325 Z M 232.682 274.125 L 227.362 273.065 L 230.002 259.685 L 235.322 260.745 L 232.682 274.125 Z M 166.132 271.455 L 157.512 260.865 L 161.702 257.455 L 170.322 268.045 L 166.132 271.455 Z M 153.542 263.125 L 148.382 261.455 L 151.522 251.525 C 152.142 249.541 154.677 248.973 156.085 250.502 C 156.122 250.542 156.158 250.583 156.192 250.625 L 158.252 253.155 L 156.142 254.905 L 153.542 263.125 Z M 236.372 255.575 L 232.552 254.575 C 232.639 254.637 232.729 254.693 232.822 254.745 C 232.602 254.645 232.232 254.515 231.932 254.405 L 231.142 254.195 L 231.142 254.125 L 223.002 250.705 L 225.002 245.705 L 233.602 249.245 C 235.062 249.765 236.022 250.105 236.602 251.245 C 236.806 251.67 236.919 252.133 236.932 252.605 C 236.927 252.946 236.866 253.284 236.752 253.605 C 236.702 254.2 236.585 254.787 236.402 255.355 L 236.372 255.575 Z M 218.002 248.635 L 205.482 243.455 L 207.482 238.455 L 220.012 243.645 L 218.002 248.635 Z M 200.462 241.365 L 187.942 236.185 L 190.002 231.185 L 202.522 236.375 L 200.462 241.365 Z M 182.932 234.115 L 170.402 228.925 L 172.462 223.925 L 185.002 229.065 L 182.932 234.115 Z M 165.402 226.855 L 152.872 221.665 L 154.932 216.615 L 167.452 221.805 L 165.402 226.855 Z M 147.862 219.595 L 144.082 218.025 C 142.139 217.224 141.791 214.62 143.456 213.338 C 143.741 213.119 144.065 212.958 144.412 212.865 L 153.542 210.455 L 154.932 215.735 L 148.782 217.385 L 147.862 219.595 Z M 160.172 214.295 L 158.782 209.015 L 171.862 205.505 L 173.262 210.785 L 160.172 214.295 Z M 178.492 209.385 L 177.102 204.105 L 190.182 200.605 L 191.572 205.875 L 178.492 209.385 Z M 196.812 204.455 L 195.422 199.175 L 208.512 195.675 L 209.902 200.955 L 196.812 204.455 Z M 215.132 199.545 L 213.742 194.275 L 226.822 190.765 L 228.212 196.045 L 215.132 199.545 Z"/>
  <path class="cls-1" d="M 188.222 350.515 C 184.239 350.571 180.259 350.263 176.332 349.595 C 165.862 347.665 158.422 341.325 151.222 335.195 L 142.772 328.045 L 129.372 316.715 C 121.372 309.945 116.722 301.095 114.572 288.845 L 109.232 258.455 C 108.822 256.255 108.402 253.985 108.232 251.655 C 107.457 243.258 109.287 234.826 113.472 227.505 C 116.212 222.645 119.002 217.805 121.792 212.965 L 126.002 205.605 C 126.642 204.495 127.262 203.375 127.892 202.255 C 131.892 195.025 136.102 187.545 143.302 182.255 C 149.072 178.005 156.002 175.655 162.612 173.395 C 164.372 172.795 166.102 172.205 167.782 171.585 L 189.002 163.815 C 197.786 160.655 207.397 160.655 216.182 163.815 C 221.182 165.585 226.182 167.425 231.112 169.265 C 233.592 170.192 236.075 171.112 238.562 172.025 C 240.042 172.565 241.562 173.085 243.062 173.615 C 250.292 176.115 257.762 178.715 263.882 183.875 C 270.002 189.035 273.752 195.875 277.432 202.595 C 278.192 203.985 278.952 205.365 279.722 206.715 L 283.722 213.715 C 286.412 218.375 289.102 223.035 291.722 227.715 C 296.271 235.727 297.97 245.043 296.542 254.145 C 296.272 255.845 295.972 257.545 295.662 259.235 L 290.312 289.755 C 288.312 301.225 283.402 310.135 275.312 316.985 L 261.502 328.665 L 254.092 334.925 C 246.202 341.595 238.092 348.495 226.352 349.925 C 220.496 350.491 214.607 350.628 208.732 350.335 C 204.192 350.215 199.732 350.215 195.172 350.335 C 192.902 350.455 190.562 350.515 188.222 350.515 Z M 202.412 168.275 C 198.619 168.267 194.855 168.927 191.292 170.225 L 170.102 177.995 C 168.372 178.635 166.582 179.235 164.782 179.855 C 158.612 181.955 152.222 184.125 147.322 187.745 C 141.322 192.185 137.662 198.745 133.812 205.605 L 131.892 209.015 L 127.642 216.395 C 124.862 221.215 122.092 226.025 119.362 230.875 C 115.853 236.956 114.303 243.971 114.922 250.965 C 115.112 252.965 115.492 254.965 115.922 257.165 L 116.302 259.455 L 121.242 287.675 C 123.122 298.395 127.002 305.745 133.732 311.455 C 138.185 315.235 142.649 319.008 147.122 322.775 L 155.592 329.945 C 162.412 335.755 168.852 341.245 177.592 342.845 C 183.082 343.845 189.162 343.685 195.052 343.515 C 199.782 343.385 204.312 343.395 208.972 343.515 C 214.52 343.794 220.081 343.67 225.612 343.145 C 235.302 341.965 242.352 336.005 249.812 329.695 L 257.222 323.425 C 261.829 319.538 266.429 315.648 271.022 311.755 C 277.932 305.895 281.962 298.525 283.702 288.565 L 289.002 258.055 C 289.302 256.405 289.592 254.765 289.852 253.115 C 291.045 245.54 289.635 237.785 285.852 231.115 C 283.242 226.455 280.562 221.825 277.852 217.185 L 273.852 210.185 C 273.062 208.805 272.282 207.385 271.502 205.965 C 268.122 199.825 264.622 193.475 259.502 189.165 C 254.382 184.855 247.502 182.425 240.822 180.165 C 239.275 179.625 237.739 179.082 236.212 178.535 L 228.742 175.775 C 223.802 173.945 218.862 172.105 213.902 170.345 C 210.218 169.005 206.332 168.305 202.412 168.275 Z M 190.132 167.025 Z"/>
  <path class="cls-1" d="M 464.002 333.555 L 464.002 350.555 L 332.882 350.555 L 332.882 165.065 L 460.052 165.065 L 460.052 182.065 L 352.492 182.065 L 352.492 248.065 L 448.392 248.065 L 448.392 264.755 L 352.492 264.755 L 352.492 333.555 L 464.002 333.555 Z"/>
  <path class="cls-1" d="M 482.442 247.985 L 551.852 247.985 L 551.852 264.455 L 482.442 264.455 L 482.442 247.985 Z"/>
  <path class="cls-1" d="M 897.222 255.985 C 897.222 201.985 938.552 161.665 994.712 161.665 C 1050.352 161.665 1091.942 201.665 1091.942 255.985 C 1091.942 310.305 1050.352 350.295 994.712 350.295 C 938.552 350.295 897.222 310.025 897.222 255.985 Z M 1072.342 255.985 C 1072.342 211.735 1039.222 179.155 994.712 179.155 C 949.942 179.155 916.562 211.735 916.562 255.985 C 916.562 300.235 949.942 332.815 994.712 332.815 C 1039.222 332.815 1072.342 300.225 1072.342 255.985 Z"/>
  <polygon class="cls-1" points="856.382 165.055 856.382 315.545 740.342 169.395 736.902 165.055 717.562 165.055 717.562 315.545 598.082 165.055 581.922 165.055 581.922 350.515 601.522 350.515 601.522 200.035 720.742 350.515 736.902 350.515 736.902 195.685 859.562 350.515 875.722 350.515 875.722 165.055 856.382 165.055"/>
</svg>